# Blender v3.2.0 OBJ File: 'CRTPanelStand.blend'
# www.blender.org
mtllib CRTPanel.mtl
o Panel.003_Cube.002
v 0.230535 -0.750898 -0.679814
v 0.230535 0.460408 -0.679814
v 0.230535 0.460408 0.679814
v 0.230535 -0.750898 0.679814
v 0.103945 0.877553 -0.910000
v 0.103945 0.910000 -0.877553
v 0.113384 0.860266 -0.878333
v 0.103945 0.900497 -0.900497
v 0.103945 -0.910000 -0.877553
v 0.103945 -0.877553 -0.910000
v 0.123081 -0.875875 -0.867078
v 0.103945 -0.900497 -0.900497
v 0.103945 -0.877553 0.910000
v 0.103945 -0.910000 0.877553
v 0.123081 -0.875875 0.867078
v 0.103945 -0.900497 0.900497
v 0.103945 0.910000 0.877553
v 0.103945 0.877553 0.910000
v 0.113384 0.860266 0.878333
v 0.103945 0.900497 0.900497
v -0.096132 0.900497 -0.900497
v -0.096132 0.910000 -0.877553
v -0.096132 0.877553 -0.910000
v -0.096132 0.900497 0.900497
v -0.096132 0.877553 0.910000
v -0.096132 0.910000 0.877553
v -0.096132 -0.900497 0.900497
v -0.096132 -0.910000 0.877553
v -0.096132 -0.877553 0.910000
v -0.096132 -0.900497 -0.900497
v -0.096132 -0.877553 -0.910000
v -0.096132 -0.910000 -0.877553
v -0.096132 0.741212 0.741212
v -0.096132 0.741212 -0.741212
v -0.096132 -0.741212 0.741212
v -0.096132 -0.741212 -0.741212
v 0.068650 0.741212 -0.741212
v 0.068650 0.741212 0.741212
v 0.068650 -0.741212 0.741212
v 0.068650 -0.741212 -0.741212
v 0.474769 0.182707 -0.496993
v 0.474769 -0.707485 -0.496993
v 0.474769 -0.707485 0.496993
v 0.474769 0.182707 0.496993
vt 0.988873 0.000000
vt 0.983721 0.008745
vt 0.869365 0.063564
vt 0.539867 0.063588
vt 0.510995 0.011886
vt 0.511451 0.000034
vt 0.024716 0.508961
vt 0.031204 0.511854
vt 0.065191 0.563570
vt 0.065192 0.939055
vt 0.031204 0.990771
vt 0.024717 0.993664
vt 0.511451 0.502659
vt 0.510995 0.490803
vt 0.539867 0.439072
vt 0.869365 0.439049
vt 0.983721 0.493878
vt 0.988873 0.502624
vt 0.133635 0.614059
vt 0.133635 0.888565
vt 0.782179 0.388537
vt 0.782179 0.114031
vt 0.995114 0.002624
vt 0.997699 0.008960
vt 0.502625 0.008996
vt 0.505210 0.002659
vt 0.505210 0.500035
vt 0.502625 0.493699
vt 0.997699 0.493663
vt 0.995114 0.499999
vt 0.939351 0.493630
vt 0.939767 0.500000
vt 0.540029 0.388555
vt 0.540029 0.114049
vt 0.346955 0.508961
vt 0.916465 0.505277
vt 0.971618 0.000000
vt 0.503584 0.009008
vt 0.503584 0.496269
vt 0.505779 0.002638
vt 0.511079 0.000000
vt 0.948579 0.493630
vt 0.512087 0.518380
vt 0.512087 0.940129
vt 0.503584 0.940129
vt 0.503584 0.518380
vt 0.939351 0.006370
vt 0.505779 0.502638
vt 0.535840 0.940129
vt 0.535840 0.518380
vt 0.511079 0.505277
vt 0.929057 0.937859
vt 0.527338 0.940129
vt 0.527338 0.518380
vt 0.929057 0.516110
vt 0.920661 0.937859
vt 0.920661 0.516110
vt 0.551091 0.927026
vt 0.551091 0.505277
vt 0.559487 0.505277
vt 0.559488 0.927026
vt 0.939767 0.000000
vt 0.000000 0.000000
vt 1.000000 0.000000
vt 1.000000 1.000000
vt 0.000000 1.000000
vn 0.8783 0.0010 -0.4781
vn 0.7849 -0.6196 0.0000
vn 0.8783 0.0010 0.4781
vn 0.1750 -0.9846 0.0000
vn 0.7509 0.6604 -0.0000
vn 0.9671 0.0974 -0.2351
vn 0.9793 0.1871 -0.0775
vn 0.8805 -0.4380 -0.1814
vn 0.9033 -0.1642 -0.3963
vn 0.9033 -0.1642 0.3963
vn 0.8805 -0.4380 0.1814
vn 0.9793 0.1871 0.0775
vn 0.9671 0.0974 0.2351
vn 0.0000 0.9239 0.3827
vn 1.0000 -0.0000 0.0000
vn 0.9629 0.2699 -0.0000
vn 0.5993 -0.0000 0.8006
vn 0.5993 0.0000 -0.8006
vn 0.0000 0.3827 -0.9239
vn 0.0000 -1.0000 0.0000
vn 0.0000 -0.9239 0.3827
vn 0.0000 -0.3827 0.9239
vn 0.0000 0.3827 0.9239
vn 0.0000 0.0000 -1.0000
vn 0.0000 1.0000 0.0000
vn -1.0000 -0.0000 -0.0000
vn 0.0000 0.0000 1.0000
vn 0.0000 0.9239 -0.3827
vn 0.0000 -0.3827 -0.9239
vn 0.0000 -0.9239 -0.3827
usemtl Shell.001
s off
f 5/1/1 7/2/1 2/3/1 1/4/1 11/5/1 10/6/1
f 9/7/2 11/8/2 1/9/2 4/10/2 15/11/2 14/12/2
f 13/13/3 15/14/3 4/15/3 3/16/3 19/17/3 18/18/3
f 4/10/4 1/9/4 42/19/4 43/20/4
f 2/3/5 3/16/5 44/21/5 41/22/5
f 5/1/6 8/23/6 7/2/6
f 8/23/7 6/24/7 7/2/7
f 9/25/8 12/26/8 11/5/8
f 12/26/9 10/6/9 11/5/9
f 13/13/10 16/27/10 15/14/10
f 16/27/11 14/28/11 15/14/11
f 17/29/12 20/30/12 19/17/12
f 20/30/13 18/18/13 19/17/13
f 17/29/14 26/31/14 24/32/14 20/30/14
f 44/21/15 43/33/15 42/34/15 41/22/15
f 3/16/16 2/3/16 7/2/16 6/35/16 17/29/16 19/17/16
f 3/16/17 4/10/17 43/33/17 44/21/17
f 41/22/18 42/34/18 1/9/18 2/3/18
f 5/1/19 23/36/19 21/37/19 8/23/19
f 9/25/20 14/12/20 28/38/20 32/39/20
f 14/12/21 16/27/21 27/40/21 28/38/21
f 13/13/22 29/41/22 27/40/22 16/27/22
usemtl Shell2.005
f 24/32/23 25/42/23 18/18/23 20/30/23
f 35/43/24 33/44/24 38/45/24 39/46/24
f 26/31/25 17/29/25 6/35/25 22/47/25
f 30/48/26 36/49/26 34/50/26 21/37/26 23/36/26 31/51/26
f 30/48/26 32/39/26 28/38/26 27/40/26 35/52/26 36/49/26
f 34/50/27 36/49/27 40/53/27 37/54/27
f 36/55/25 35/52/25 39/56/25 40/57/25
f 33/58/20 34/59/20 37/60/20 38/61/20
f 25/42/27 29/41/27 13/13/27 18/18/27
f 22/47/28 6/24/28 8/23/28 21/62/28
f 31/51/24 23/36/24 5/1/24 10/6/24
f 30/48/29 31/51/29 10/6/29 12/26/29
f 30/48/30 12/26/30 9/25/30 32/39/30
f 24/32/26 33/44/26 35/43/26 27/40/26 29/41/26 25/42/26
f 22/47/26 21/62/26 34/50/26 33/58/26 24/32/26 26/31/26
usemtl Panel.003
f 40/63/26 39/64/26 38/65/26 37/66/26
