# Blender v3.2.0 OBJ File: ''
# www.blender.org
mtllib untitled.mtl
o Cylinder
v 0.000000 -2.807599 -1.000000
v 0.000000 2.807599 -1.000000
v 0.195090 -2.807599 -0.980785
v 0.195090 2.807599 -0.980785
v 0.382683 -2.807599 -0.923880
v 0.382683 2.807599 -0.923880
v 0.555570 -2.807599 -0.831470
v 0.555570 2.807599 -0.831470
v 0.707107 -2.807599 -0.707107
v 0.707107 2.807599 -0.707107
v 0.831470 -2.807599 -0.555570
v 0.831470 2.807599 -0.555570
v 0.923880 -2.807599 -0.382683
v 0.923880 2.807599 -0.382683
v 0.980785 -2.807599 -0.195090
v 0.980785 2.807599 -0.195090
v 1.000000 -2.807599 0.000000
v 1.000000 2.807599 0.000000
v 0.980785 -2.807599 0.195090
v 0.980785 2.807599 0.195090
v 0.923880 -2.807599 0.382683
v 0.923880 2.807599 0.382683
v 0.831470 -2.807599 0.555570
v 0.831470 2.807599 0.555570
v 0.707107 -2.807599 0.707107
v 0.707107 2.807599 0.707107
v 0.555570 -2.807599 0.831470
v 0.555570 2.807599 0.831470
v 0.382683 -2.807599 0.923880
v 0.382683 2.807599 0.923880
v 0.195090 -2.807599 0.980785
v 0.195090 2.807599 0.980785
v -0.000000 -2.807599 1.000000
v -0.000000 2.807599 1.000000
v -0.195090 -2.807599 0.980785
v -0.195090 2.807599 0.980785
v -0.382683 -2.807599 0.923880
v -0.382683 2.807599 0.923880
v -0.555570 -2.807599 0.831470
v -0.555570 2.807599 0.831470
v -0.707107 -2.807599 0.707107
v -0.707107 2.807599 0.707107
v -0.831469 -2.807599 0.555570
v -0.831469 2.807599 0.555570
v -0.923880 -2.807599 0.382684
v -0.923880 2.807599 0.382684
v -0.980785 -2.807599 0.195090
v -0.980785 2.807599 0.195090
v -1.000000 -2.807599 -0.000000
v -1.000000 2.807599 -0.000000
v -0.980785 -2.807599 -0.195090
v -0.980785 2.807599 -0.195090
v -0.923879 -2.807599 -0.382684
v -0.923879 2.807599 -0.382684
v -0.831470 -2.807599 -0.555570
v -0.831470 2.807599 -0.555570
v -0.707107 -2.807599 -0.707107
v -0.707107 2.807599 -0.707107
v -0.555570 -2.807599 -0.831470
v -0.555570 2.807599 -0.831470
v -0.382683 -2.807599 -0.923880
v -0.382683 2.807599 -0.923880
v -0.195090 -2.807599 -0.980785
v -0.195090 2.807599 -0.980785
vt 1.000000 0.000002
vt 0.999998 1.000000
vt 0.968749 1.000000
vt 0.968750 0.000001
vt 0.937499 1.000000
vt 0.937500 0.000001
vt 0.906249 1.000000
vt 0.906251 0.000001
vt 0.874999 1.000000
vt 0.875001 0.000001
vt 0.843749 1.000000
vt 0.843751 0.000001
vt 0.812499 0.999999
vt 0.812501 0.000001
vt 0.781249 0.999999
vt 0.781251 0.000000
vt 0.750000 0.999999
vt 0.750001 0.000000
vt 0.718750 0.999999
vt 0.718751 0.000000
vt 0.687500 0.999999
vt 0.687501 0.000000
vt 0.656250 0.999999
vt 0.656251 -0.000000
vt 0.625000 0.999999
vt 0.625001 -0.000000
vt 0.593750 0.999999
vt 0.593751 -0.000000
vt 0.562500 0.999999
vt 0.562501 -0.000000
vt 0.531251 0.999999
vt 0.531251 -0.000000
vt 0.500001 0.999999
vt 0.500001 -0.000000
vt 0.468751 0.999999
vt 0.468751 -0.000000
vt 0.437501 0.999999
vt 0.437501 -0.000000
vt 0.406251 0.999999
vt 0.406251 -0.000000
vt 0.375001 0.999999
vt 0.375001 -0.000000
vt 0.343751 0.999999
vt 0.343751 -0.000000
vt 0.312501 0.999999
vt 0.312501 -0.000000
vt 0.281251 0.999999
vt 0.281251 -0.000000
vt 0.250002 0.999999
vt 0.250001 -0.000000
vt 0.218752 0.999999
vt 0.218751 -0.000000
vt 0.187502 0.999999
vt 0.187501 0.000000
vt 0.156252 0.999999
vt 0.156251 0.000000
vt 0.125002 1.000000
vt 0.125001 0.000000
vt 0.093752 1.000000
vt 0.093751 0.000000
vt 0.062502 1.000000
vt 0.062501 0.000000
vt 0.031252 1.000000
vt 0.031250 0.000001
vt 0.000002 1.000000
vt 0.000000 0.000001
vn -0.0000 0.0000 -1.0000
vn 0.1951 0.0000 -0.9808
vn 0.3827 0.0000 -0.9239
vn 0.5556 0.0000 -0.8315
vn 0.7071 0.0000 -0.7071
vn 0.8315 0.0000 -0.5556
vn 0.9239 0.0000 -0.3827
vn 0.9808 0.0000 -0.1951
vn 1.0000 0.0000 0.0000
vn 0.9808 0.0000 0.1951
vn 0.9239 0.0000 0.3827
vn 0.8315 0.0000 0.5556
vn 0.7071 0.0000 0.7071
vn 0.5556 0.0000 0.8315
vn 0.3827 0.0000 0.9239
vn 0.1951 0.0000 0.9808
vn -0.0000 0.0000 1.0000
vn -0.1951 0.0000 0.9808
vn -0.3827 0.0000 0.9239
vn -0.5556 0.0000 0.8315
vn -0.7071 0.0000 0.7071
vn -0.8315 0.0000 0.5556
vn -0.9239 0.0000 0.3827
vn -0.9808 0.0000 0.1951
vn -1.0000 0.0000 0.0000
vn -0.9808 0.0000 -0.1951
vn -0.9239 0.0000 -0.3827
vn -0.8315 0.0000 -0.5556
vn -0.7071 0.0000 -0.7071
vn -0.5556 0.0000 -0.8315
vn -0.3827 0.0000 -0.9239
vn -0.1951 0.0000 -0.9808
usemtl Material.001
s 1
f 1/1/1 2/2/1 4/3/2 3/4/2
f 3/4/2 4/3/2 6/5/3 5/6/3
f 5/6/3 6/5/3 8/7/4 7/8/4
f 7/8/4 8/7/4 10/9/5 9/10/5
f 9/10/5 10/9/5 12/11/6 11/12/6
f 11/12/6 12/11/6 14/13/7 13/14/7
f 13/14/7 14/13/7 16/15/8 15/16/8
f 15/16/8 16/15/8 18/17/9 17/18/9
f 17/18/9 18/17/9 20/19/10 19/20/10
f 19/20/10 20/19/10 22/21/11 21/22/11
f 21/22/11 22/21/11 24/23/12 23/24/12
f 23/24/12 24/23/12 26/25/13 25/26/13
f 25/26/13 26/25/13 28/27/14 27/28/14
f 27/28/14 28/27/14 30/29/15 29/30/15
f 29/30/15 30/29/15 32/31/16 31/32/16
f 31/32/16 32/31/16 34/33/17 33/34/17
f 33/34/17 34/33/17 36/35/18 35/36/18
f 35/36/18 36/35/18 38/37/19 37/38/19
f 37/38/19 38/37/19 40/39/20 39/40/20
f 39/40/20 40/39/20 42/41/21 41/42/21
f 41/42/21 42/41/21 44/43/22 43/44/22
f 43/44/22 44/43/22 46/45/23 45/46/23
f 45/46/23 46/45/23 48/47/24 47/48/24
f 47/48/24 48/47/24 50/49/25 49/50/25
f 49/50/25 50/49/25 52/51/26 51/52/26
f 51/52/26 52/51/26 54/53/27 53/54/27
f 53/54/27 54/53/27 56/55/28 55/56/28
f 55/56/28 56/55/28 58/57/29 57/58/29
f 57/58/29 58/57/29 60/59/30 59/60/30
f 59/60/30 60/59/30 62/61/31 61/62/31
f 61/62/31 62/61/31 64/63/32 63/64/32
f 63/64/32 64/63/32 2/65/1 1/66/1
