# Blender v3.2.1 OBJ File: 'CRTPanelStand.blend'
# www.blender.org
mtllib SolarPanelShape.mtl
o Shape_立方体.008
v -0.024601 -0.899940 -1.000000
v -0.024601 -1.000000 -0.899940
v -0.024601 1.000000 -0.899940
v -0.024601 0.899940 -1.000000
v -0.024600 -1.000000 0.899940
v -0.024600 -0.899940 1.000000
v -0.024600 0.899940 1.000000
v -0.024600 1.000000 0.899940
v -0.064404 -0.828017 0.887037
v -0.064404 -0.887037 0.828017
v -0.064405 0.887037 0.828017
v -0.064404 0.828017 0.887037
v -0.064405 -0.887037 -0.828017
v -0.064405 -0.828017 -0.887037
v -0.064405 0.828017 -0.887037
v -0.064405 0.887037 -0.828017
v -0.064404 -0.853375 0.948257
v -0.064404 -0.948257 0.853375
v -0.064405 0.948257 0.853375
v -0.064404 0.853375 0.948257
v -0.064405 -0.948257 -0.853375
v -0.064405 -0.853375 -0.948257
v -0.064405 0.853375 -0.948257
v -0.064405 0.948257 -0.853375
v 0.066329 -0.974089 0.889207
v 0.066329 -0.889207 0.974089
v 0.066329 0.889207 0.974089
v 0.066329 0.974089 0.889207
v 0.066328 -0.889207 -0.974089
v 0.066328 -0.974089 -0.889207
v 0.066328 0.974089 -0.889207
v 0.066328 0.889207 -0.974089
v 0.043505 -1.000000 0.899940
v 0.043505 -0.899940 1.000000
v 0.043505 0.899940 1.000000
v 0.043505 1.000000 0.899940
v 0.043505 -0.899940 -1.000000
v 0.043505 -1.000000 -0.899940
v 0.043505 1.000000 -0.899940
v 0.043505 0.899940 -1.000000
v 0.030469 -0.828017 -0.887037
v 0.030469 0.828017 -0.887037
v 0.030469 -0.887037 0.828017
v 0.030469 -0.887037 -0.828017
v 0.030469 0.887037 -0.828017
v 0.030469 0.887037 0.828017
v 0.030469 0.828017 0.887037
v 0.030469 -0.828017 0.887037
vt 1.000000 0.966731
vt 0.966731 1.000000
vt 0.033269 1.000000
vt 0.000000 0.966731
vt 0.000000 0.033269
vt 0.033269 0.000000
vt 0.966731 0.000000
vt 1.000000 0.033269
vt 0.517026 0.025015
vt 0.517026 0.474985
vt 0.500000 0.474985
vt 0.500000 0.025015
vt 0.517026 0.025015
vt 0.534053 0.025015
vt 0.534053 0.474985
vt 0.517026 0.474985
vt 0.568106 0.449970
vt 0.551079 0.449970
vt 0.551079 0.000000
vt 0.568106 0.000000
vt 0.534053 0.449970
vt 0.551079 0.449970
vt 0.551079 0.474985
vt 0.534053 0.474985
vt 0.517026 0.000000
vt 0.534053 0.000000
vt 0.500000 0.000000
vt 0.517026 0.000000
vt 0.517026 0.500000
vt 0.500000 0.500000
vt 0.534053 0.000000
vt 0.551079 0.000000
vt 0.568106 0.443519
vt 0.568106 0.428763
vt 0.571941 0.428763
vt 0.571941 0.443519
vt 0.000000 0.025015
vt 0.025015 0.000000
vt 0.036656 0.012936
vt 0.012936 0.036656
vt 0.500000 0.474985
vt 0.474985 0.500000
vt 0.463344 0.487064
vt 0.487064 0.463344
vt 0.025015 0.500000
vt 0.000000 0.474985
vt 0.012936 0.463344
vt 0.036656 0.487064
vt 0.474985 0.000000
vt 0.500000 0.025015
vt 0.487064 0.036656
vt 0.463344 0.012936
vt 0.042996 0.028241
vt 0.028241 0.042996
vt 0.471759 0.042996
vt 0.457004 0.028241
vt 0.028241 0.457004
vt 0.042996 0.471759
vt 0.457004 0.471759
vt 0.471759 0.457004
vt 0.575776 0.428763
vt 0.575776 0.414008
vt 0.579611 0.414008
vt 0.579611 0.428763
vt 0.579611 0.414008
vt 0.579611 0.000000
vt 0.583446 0.000000
vt 0.583446 0.414008
vt 0.568106 0.014755
vt 0.568106 0.000000
vt 0.571941 0.000000
vt 0.571941 0.014755
vt 0.575776 0.000000
vt 0.575776 0.414008
vt 0.571941 0.414008
vt 0.575776 0.000000
vt 0.579611 0.000000
vt 0.575776 0.428763
vt 0.571941 0.428763
vt 0.006478 0.527698
vt 0.027698 0.506478
vt 0.472302 0.506478
vt 0.493522 0.527698
vt 0.493522 0.972302
vt 0.472302 0.993522
vt 0.027698 0.993522
vt 0.006478 0.972302
vt 0.025015 1.000000
vt 0.000000 0.974985
vt 0.500000 0.974985
vt 0.474985 1.000000
vt 0.000000 0.525015
vt 0.025015 0.500000
vt 0.474985 0.500000
vt 0.500000 0.525015
vn -1.0000 -0.0000 0.0000
vn 0.0000 0.0000 -1.0000
vn 0.0000 1.0000 0.0000
vn 0.0000 0.0000 1.0000
vn 0.0000 -0.7071 0.7071
vn 0.0000 0.7071 0.7071
vn 0.0000 -0.7071 -0.7071
vn 0.0000 0.7071 -0.7071
vn 0.0000 -1.0000 0.0000
vn -0.8678 -0.3514 0.3514
vn -0.8678 0.3514 -0.3514
vn -0.8678 -0.3514 -0.3514
vn -0.8678 0.3514 0.3514
vn -0.7926 0.6097 0.0000
vn -0.7926 -0.0000 0.6097
vn -0.7926 -0.6097 0.0000
vn -0.7926 0.0000 -0.6097
vn 1.0000 0.0000 -0.0000
vn 0.7504 -0.4674 0.4674
vn 0.7504 0.4674 0.4674
vn 0.7504 -0.4674 -0.4674
vn 0.7504 0.4674 -0.4674
vn 0.7504 -0.6610 -0.0000
vn 0.7504 0.0000 -0.6610
vn 0.7504 0.6610 -0.0000
vn 0.7504 0.0000 0.6610
usemtl Panel
s off
f 43/1/1 48/2/1 47/3/1 46/4/1 45/5/1 42/6/1 41/7/1 44/8/1
usemtl Shell
f 1/9/2 4/10/2 40/11/2 37/12/2
f 8/13/3 36/14/3 39/15/3 3/16/3
f 35/17/4 7/18/4 6/19/4 34/20/4
f 5/21/5 33/22/5 34/23/5 6/24/5
f 36/14/6 8/13/6 7/25/6 35/26/6
f 38/27/7 2/28/7 1/9/7 37/12/7
f 3/29/8 39/30/8 40/11/8 4/10/8
f 33/22/9 5/21/9 2/31/9 38/32/9
f 10/33/8 9/34/8 48/35/8 43/36/8
f 5/37/10 6/38/10 17/39/10 18/40/10
f 3/41/11 4/42/11 23/43/11 24/44/11
f 1/45/12 2/46/12 21/47/12 22/48/12
f 7/49/13 8/50/13 19/51/13 20/52/13
f 3/41/14 24/44/14 19/51/14 8/50/14
f 20/52/15 17/39/15 6/38/15 7/49/15
f 5/37/16 18/40/16 21/47/16 2/46/16
f 4/42/17 1/45/17 22/48/17 23/43/17
f 9/53/1 10/54/1 18/40/1 17/39/1
f 11/55/1 12/56/1 20/52/1 19/51/1
f 13/57/1 14/58/1 22/48/1 21/47/1
f 15/59/1 16/60/1 24/44/1 23/43/1
f 12/56/1 9/53/1 17/39/1 20/52/1
f 16/60/1 11/55/1 19/51/1 24/44/1
f 14/61/6 13/62/6 44/63/6 41/64/6
f 10/54/1 13/57/1 21/47/1 18/40/1
f 15/65/4 14/66/4 41/67/4 42/68/4
f 12/69/7 11/70/7 46/71/7 47/72/7
f 11/73/9 16/74/9 45/75/9 46/71/9
f 14/58/1 15/59/1 23/43/1 22/48/1
f 9/34/2 12/69/2 47/72/2 48/35/2
f 13/62/3 10/76/3 43/77/3 44/63/3
f 16/74/5 15/78/5 42/79/5 45/75/5
f 30/80/18 29/81/18 32/82/18 31/83/18 28/84/18 27/85/18 26/86/18 25/87/18
f 25/87/19 26/86/19 34/88/19 33/89/19
f 27/85/20 28/84/20 36/90/20 35/91/20
f 29/81/21 30/80/21 38/92/21 37/93/21
f 31/83/22 32/82/22 40/94/22 39/95/22
f 30/80/23 25/87/23 33/89/23 38/92/23
f 32/82/24 29/81/24 37/93/24 40/94/24
f 28/84/25 31/83/25 39/95/25 36/90/25
f 26/86/26 27/85/26 35/91/26 34/88/26
