# Blender v2.93.5 OBJ File: ''
# www.blender.org
mtllib Rock1.mtl
o defaultMaterial.001
v 0.481383 -0.157058 0.256702
v 0.463415 -0.245426 0.326032
v 0.512517 -0.254066 0.306062
v -0.100159 0.035674 0.061638
v -0.166596 0.048860 -0.113084
v -0.175211 0.010116 0.078060
v 0.411653 -0.202666 -0.552152
v 0.402061 -0.402776 -0.589850
v 0.324647 -0.473096 -0.616222
v 0.402061 -0.402776 -0.589850
v 0.411653 -0.202666 -0.552152
v 0.462357 -0.170410 -0.491274
v -0.363929 -0.477084 -0.322776
v -0.372807 -0.478814 -0.173242
v -0.367435 -0.452834 -0.313554
v -0.243169 -0.126856 -0.370026
v -0.066729 0.005288 -0.392912
v -0.077146 -0.191822 -0.559632
v -0.256729 -0.484012 0.286962
v -0.337997 -0.420608 0.194938
v -0.364493 -0.482118 0.114264
v 0.524867 -0.033154 -0.081134
v 0.672879 -0.268218 -0.201068
v 0.660795 -0.298324 -0.287310
v 0.535105 -0.302934 0.308138
v 0.357791 -0.484950 0.415380
v 0.657001 -0.481224 0.114802
v 0.623867 -0.476028 -0.338792
v 0.626391 -0.458996 -0.347346
v 0.660795 -0.298324 -0.287310
v 0.623867 -0.476028 -0.338792
v 0.402061 -0.402776 -0.589850
v 0.626391 -0.458996 -0.347346
v -0.077146 -0.191822 -0.559632
v 0.162610 -0.180316 -0.592280
v -0.111482 -0.473808 -0.587804
v -0.111482 -0.473808 -0.587804
v -0.363929 -0.477084 -0.322776
v -0.367435 -0.452834 -0.313554
v -0.166596 0.048860 -0.113084
v -0.243169 -0.126856 -0.370026
v -0.372807 -0.478814 -0.173242
v 0.324647 -0.473096 -0.616222
v 0.623867 -0.476028 -0.338792
v 0.357791 -0.484950 0.415380
v 0.314899 -0.403506 0.432652
v 0.388037 -0.273758 0.367124
v 0.275695 -0.098970 0.270068
v 0.408349 0.038258 -0.208096
v 0.481219 0.023876 -0.026494
v 0.524867 -0.033154 -0.081134
v 0.524867 -0.033154 -0.081134
v 0.481383 -0.157058 0.256702
v 0.662841 -0.452080 0.120394
v -0.199526 -0.019322 -0.309236
v -0.166596 0.048860 -0.113084
v -0.103360 0.069450 -0.121934
v 0.038905 0.085580 -0.247334
v 0.395649 0.057006 -0.184926
v 0.408349 0.038258 -0.208096
v -0.213033 -0.098766 0.207362
v -0.100159 0.035674 0.061638
v -0.175211 0.010116 0.078060
v 0.481219 0.023876 -0.026494
v 0.395649 0.057006 -0.184926
v 0.297015 -0.008434 0.198248
v -0.140993 -0.254616 0.334968
v -0.256729 -0.484012 0.286962
v 0.084845 -0.485126 0.409842
v 0.275695 -0.098970 0.270068
v 0.297015 -0.008434 0.198248
v 0.279789 -0.007112 0.195544
v 0.275695 -0.098970 0.270068
v 0.388037 -0.273758 0.367124
v 0.481383 -0.157058 0.256702
v 0.128623 -0.408842 0.427710
v 0.084845 -0.485126 0.409842
v 0.357791 -0.484950 0.415380
v 0.363333 -0.451680 0.422900
v 0.535105 -0.302934 0.308138
v 0.388037 -0.273758 0.367124
v -0.265141 -0.466102 0.284432
v -0.140993 -0.254616 0.334968
v -0.154924 -0.177992 0.293892
v -0.103360 0.069450 -0.121934
v 0.220137 -0.472976 -0.634726
v 0.162610 -0.180316 -0.592280
v 0.660795 -0.298324 -0.287310
v 0.626391 -0.458996 -0.347346
v -0.199526 -0.019322 -0.309236
v -0.000418 -0.126824 -0.562896
v -0.265141 -0.466102 0.284432
v 0.462357 -0.170410 -0.491274
v 0.408349 0.038258 -0.208096
v 0.657001 -0.481224 0.114802
v 0.662841 -0.452080 0.120394
v 0.535105 -0.302934 0.308138
v 0.363333 -0.451680 0.422900
v 0.672879 -0.268218 -0.201068
v 0.662841 -0.452080 0.120394
v 0.657001 -0.481224 0.114802
v 0.324647 -0.473096 -0.616222
v -0.000418 -0.126824 -0.562896
v 0.220137 -0.472976 -0.634726
v -0.367435 -0.452834 -0.313554
v -0.243169 -0.126856 -0.370026
v -0.111482 -0.473808 -0.587804
v -0.077146 -0.191822 -0.559632
v -0.364493 -0.482118 0.114264
v -0.337997 -0.420608 0.194938
v -0.213033 -0.098766 0.207362
v -0.175211 0.010116 0.078060
v -0.199526 -0.019322 -0.309236
v -0.367435 -0.452834 -0.313554
v 0.657001 -0.481224 0.114802
v 0.084845 -0.485126 0.409842
v -0.256729 -0.484012 0.286962
v -0.111482 -0.473808 -0.587804
v -0.372807 -0.478814 -0.173242
v -0.364493 -0.482118 0.114264
v -0.363929 -0.477084 -0.322776
v 0.220137 -0.472976 -0.634726
v -0.154924 -0.177992 0.293892
v 0.128623 -0.408842 0.427710
v -0.140993 -0.254616 0.334968
v 0.395649 0.057006 -0.184926
v 0.512517 -0.254066 0.306062
v 0.535105 -0.302934 0.308138
v 0.672879 -0.268218 -0.201068
v 0.481219 0.023876 -0.026494
v 0.440169 -0.008174 0.159268
v 0.038905 0.085580 -0.247334
v -0.066729 0.005288 -0.392912
v 0.462357 -0.170410 -0.491274
v 0.411653 -0.202666 -0.552152
v 0.162610 -0.180316 -0.592280
v -0.000418 -0.126824 -0.562896
v -0.066729 0.005288 -0.392912
v 0.279789 -0.007112 0.195544
v 0.038905 0.085580 -0.247334
v -0.103360 0.069450 -0.121934
v -0.100159 0.035674 0.061638
v 0.279789 -0.007112 0.195544
v 0.440169 -0.008174 0.159268
v 0.128623 -0.408842 0.427710
v -0.265141 -0.466102 0.284432
v 0.279789 -0.007112 0.195544
v -0.213033 -0.098766 0.207362
v -0.154924 -0.177992 0.293892
v -0.154924 -0.177992 0.293892
v 0.463415 -0.245426 0.326032
v 0.440169 -0.008174 0.159268
v 0.297015 -0.008434 0.198248
v 0.357791 -0.484950 0.415380
v 0.363333 -0.451680 0.422900
v 0.314899 -0.403506 0.432652
v 0.535105 -0.302934 0.308138
v 0.512517 -0.254066 0.306062
v 0.463415 -0.245426 0.326032
v 0.314899 -0.403506 0.432652
v -0.213033 -0.098766 0.207362
v -0.337997 -0.420608 0.194938
vt 0.804400 0.422989
vt 0.822760 0.423536
vt 0.823226 0.412653
vt 0.637785 0.437542
vt 0.667492 0.417360
vt 0.633456 0.418237
vt 0.792163 0.346951
vt 0.829679 0.346368
vt 0.843727 0.327489
vt 0.829679 0.346368
vt 0.792163 0.346951
vt 0.785014 0.358265
vt 0.718757 0.152878
vt 0.717999 0.124995
vt 0.714153 0.151303
vt 0.782369 0.173817
vt 0.756503 0.219100
vt 0.794952 0.221591
vt 0.718757 0.039311
vt 0.705838 0.056769
vt 0.717089 0.071407
vt 0.682516 0.595306
vt 0.714700 0.628841
vt 0.730908 0.623840
vt 0.899046 0.819079
vt 0.926475 0.844759
vt 0.936482 0.781303
vt 0.936482 0.698024
vt 0.933468 0.696258
vt 0.904750 0.705415
vt 0.838207 0.397233
vt 0.829679 0.346368
vt 0.835133 0.398022
vt 0.794952 0.221591
vt 0.790890 0.283932
vt 0.847734 0.214786
vt 0.847734 0.214786
vt 0.847734 0.143206
vt 0.843179 0.141959
vt 0.624767 0.117151
vt 0.657043 0.163903
vt 0.717999 0.124995
vt 0.308720 0.548212
vt 0.363057 0.623655
vt 0.499817 0.549069
vt 0.856378 0.454171
vt 0.829953 0.439728
vt 0.796415 0.472668
vt 0.700598 0.563690
vt 0.669842 0.585643
vt 0.682516 0.595306
vt 0.850849 0.745344
vt 0.870777 0.809938
vt 0.931284 0.781992
vt 0.704201 0.404584
vt 0.667492 0.417360
vt 0.670256 0.433707
vt 0.696518 0.468245
vt 0.695527 0.561033
vt 0.700598 0.563690
vt 0.799929 0.596599
vt 0.769899 0.577093
vt 0.775871 0.594651
vt 0.669842 0.585643
vt 0.695527 0.561033
vt 0.624774 0.541948
vt 0.831326 0.571731
vt 0.873173 0.603578
vt 0.873173 0.512308
vt 0.796415 0.472668
vt 0.777550 0.471437
vt 0.777419 0.475831
vt 0.796415 0.472668
vt 0.829953 0.439728
vt 0.804400 0.422989
vt 0.859254 0.500303
vt 0.873173 0.512308
vt 0.870308 0.444830
vt 0.864378 0.442944
vt 0.831978 0.407089
vt 0.829953 0.439728
vt 0.869916 0.605754
vt 0.831326 0.571731
vt 0.816278 0.577395
vt 0.670256 0.433707
vt 0.844923 0.301127
vt 0.790890 0.283932
vt 0.804411 0.404584
vt 0.835133 0.398022
vt 0.761373 0.182976
vt 0.782235 0.241077
vt 0.759299 0.570283
vt 0.700598 0.563690
vt 0.936482 0.781303
vt 0.931284 0.781992
vt 0.899046 0.819079
vt 0.899217 0.720890
vt 0.931284 0.781992
vt 0.936482 0.781303
vt 0.843727 0.327489
vt 0.782235 0.241077
vt 0.844923 0.301127
vt 0.843179 0.141959
vt 0.782369 0.173817
vt 0.847734 0.214786
vt 0.794952 0.221591
vt 0.717089 0.071407
vt 0.705838 0.056769
vt 0.649100 0.056506
vt 0.630597 0.081291
vt 0.637791 0.153262
vt 0.714153 0.151303
vt 0.447270 0.628841
vt 0.496023 0.478395
vt 0.469835 0.390820
vt 0.309550 0.435005
vt 0.383558 0.364194
vt 0.436807 0.364194
vt 0.355997 0.367615
vt 0.304238 0.521273
vt 0.816278 0.577395
vt 0.859254 0.500303
vt 0.831326 0.571731
vt 0.695527 0.561033
vt 0.889365 0.818944
vt 0.899046 0.819079
vt 0.899217 0.720890
vt 0.838760 0.756212
vt 0.842550 0.791926
vt 0.696518 0.468245
vt 0.722373 0.437532
vt 0.759299 0.570283
vt 0.769899 0.555771
vt 0.769899 0.491082
vt 0.758707 0.450154
vt 0.722373 0.437532
vt 0.777419 0.475831
vt 0.696518 0.468245
vt 0.670256 0.433707
vt 0.637785 0.437542
vt 0.624767 0.537472
vt 0.635733 0.578131
vt 0.859254 0.500303
vt 0.777419 0.475831
vt 0.799929 0.596599
vt 0.816278 0.577395
vt 0.816278 0.577395
vt 0.822760 0.423536
vt 0.774809 0.438513
vt 0.777550 0.471437
vt 0.870308 0.444830
vt 0.864378 0.442944
vt 0.856378 0.454171
vt 0.831978 0.407089
vt 0.823226 0.412653
vt 0.822760 0.423536
vt 0.856378 0.454171
vt 0.799929 0.596599
vt 0.859814 0.628841
vt 0.715285 0.039883
vt 0.920501 0.845785
vt 0.869916 0.605754
vn 0.3992 0.5143 0.7590
vn -0.2820 0.9427 0.1784
vn 0.1719 0.1744 -0.9696
vn 0.7414 0.0897 -0.6650
vn -0.9909 -0.1204 -0.0602
vn -0.5108 0.5708 -0.6429
vn -0.8084 -0.3089 0.5011
vn 0.7218 0.6157 -0.3161
vn 0.6846 -0.2673 0.6781
vn 0.9805 -0.1824 -0.0738
vn 0.6131 -0.4252 -0.6658
vn -0.1395 0.1152 -0.9835
vn -0.7163 0.1552 -0.6804
vn -0.9322 0.3607 0.0311
vn 0.0009 -0.9999 -0.0115
vn -0.0368 0.4670 0.8835
vn 0.6678 0.7137 -0.2114
vn 0.8712 0.4139 0.2639
vn -0.3316 0.9070 -0.2596
vn 0.1636 0.8088 -0.5648
vn -0.1297 0.7768 0.6162
vn 0.0472 0.9825 0.1800
vn -0.3385 -0.0261 0.9406
vn -0.0730 0.6303 0.7729
vn 0.2139 0.5757 0.7892
vn -0.0197 -0.2173 0.9759
vn 0.4007 0.2230 0.8887
vn -0.6890 0.2411 0.6835
vn -0.5108 0.5707 -0.6429
vn 0.9805 -0.1824 -0.0737
vn 0.9805 -0.1823 -0.0737
vn 0.6131 -0.4253 -0.6658
vn -0.1394 0.1152 -0.9835
vn -0.9321 0.3607 0.0311
vn -0.0368 0.4669 0.8835
vn -0.3317 0.9070 -0.2596
vn 0.0472 0.9825 0.1799
vn -0.1121 0.6943 0.7109
vn -0.0729 0.6303 0.7729
vn 0.2138 0.5757 0.7892
vn -0.0196 -0.2173 0.9759
vn 0.4007 0.2229 0.8887
vn 0.6846 -0.2673 0.6782
vn -0.3384 -0.0261 0.9406
usemtl DefaultMaterial
s off
f 1/1/1 2/2/1 3/3/1
f 4/4/2 5/5/2 6/6/2
f 7/7/3 8/8/3 9/9/3
f 10/10/4 11/11/4 12/12/4
f 13/13/5 14/14/5 15/15/5
f 16/16/6 17/17/6 18/18/6
f 19/19/7 20/20/7 21/21/7
f 22/22/8 23/23/8 24/24/8
f 25/25/9 26/26/9 27/27/9
f 28/28/10 29/29/10 30/30/10
f 31/31/11 32/32/11 33/33/11
f 34/34/12 35/35/12 36/36/12
f 37/37/13 38/38/13 39/39/13
f 40/40/14 41/41/14 42/42/14
f 43/43/15 44/44/15 45/45/15
f 46/46/16 47/47/16 48/48/16
f 49/49/17 50/50/17 51/51/17
f 52/52/18 53/53/18 54/54/18
f 55/55/19 56/56/19 57/57/19
f 58/58/20 59/59/20 60/60/20
f 61/61/21 62/62/21 63/63/21
f 64/64/22 65/65/22 66/66/22
f 67/67/23 68/68/23 69/69/23
f 70/70/24 71/71/24 72/72/24
f 73/73/25 74/74/25 75/75/25
f 76/76/26 77/77/26 78/78/26
f 79/79/27 80/80/27 81/81/27
f 82/82/28 83/83/28 84/84/28
f 4/4/2 85/85/2 5/5/2
f 9/9/3 86/86/3 87/87/3
f 12/12/4 88/88/4 89/89/4
f 89/89/4 10/10/4 12/12/4
f 90/90/6 17/17/6 16/16/6
f 17/17/29 91/91/29 18/18/29
f 24/24/8 93/92/8 22/22/8
f 93/92/8 94/93/8 22/22/8
f 95/94/9 96/95/9 97/96/9
f 30/30/30 99/97/30 28/28/30
f 99/97/31 100/98/31 101/99/31
f 28/28/30 99/97/30 101/99/30
f 31/31/32 102/100/32 32/32/32
f 103/101/12 35/35/12 34/34/12
f 35/35/33 104/102/33 36/36/33
f 105/103/13 106/104/13 107/105/13
f 106/104/13 108/106/13 107/105/13
f 109/107/34 110/108/34 42/42/34
f 110/108/14 111/109/14 42/42/14
f 111/109/14 112/110/14 42/42/14
f 112/110/14 40/40/14 42/42/14
f 40/40/34 113/111/34 41/41/34
f 41/41/14 114/112/14 42/42/14
f 44/44/15 115/113/15 45/45/15
f 45/45/15 116/114/15 43/43/15
f 116/114/15 117/115/15 118/116/15
f 118/116/15 117/115/15 119/117/15
f 117/115/15 120/118/15 119/117/15
f 119/117/15 121/119/15 118/116/15
f 118/116/15 122/120/15 116/114/15
f 122/120/15 43/43/15 116/114/15
f 48/48/35 123/121/35 124/122/35
f 123/121/35 125/123/35 124/122/35
f 49/49/17 126/124/17 50/50/17
f 127/125/18 128/126/18 53/53/18
f 128/126/18 54/54/18 53/53/18
f 54/54/18 129/127/18 52/52/18
f 52/52/18 130/128/18 131/129/18
f 131/129/18 53/53/18 52/52/18
f 132/130/19 133/131/19 57/57/19
f 133/131/36 55/55/36 57/57/36
f 60/60/20 134/132/20 135/133/20
f 135/133/20 136/134/20 60/60/20
f 136/134/20 137/135/20 58/58/20
f 60/60/20 136/134/20 58/58/20
f 137/135/20 138/136/20 58/58/20
f 61/61/21 139/137/21 62/62/21
f 140/138/22 141/139/22 142/140/22
f 142/140/22 143/141/22 140/138/22
f 143/141/37 66/66/37 65/65/37
f 140/138/22 143/141/22 65/65/22
f 66/66/22 144/142/22 64/64/22
f 69/69/23 145/143/23 67/67/23
f 147/144/38 148/145/38 149/146/38
f 150/147/39 70/70/39 72/72/39
f 74/74/40 151/148/40 75/75/40
f 75/75/25 152/149/25 73/73/25
f 152/149/40 153/150/40 73/73/40
f 154/151/41 155/152/41 156/153/41
f 156/153/26 76/76/26 78/78/26
f 157/154/42 158/155/42 159/156/42
f 159/156/27 81/81/27 80/80/27
f 81/81/27 160/157/27 79/79/27
f 84/84/28 161/158/28 162/159/28
f 162/159/28 82/82/28 84/84/28
s 1
f 87/87/3 7/7/3 9/9/3
f 19/19/7 92/160/7 20/20/7
f 97/96/43 98/161/43 26/26/43
f 124/122/35 46/46/35 48/48/35
f 67/67/44 146/162/44 68/68/44
